<svg width="300" height="258" viewBox="0 0 300 258" fill="none" xmlns="http://www.w3.org/2000/svg">
<g clip-path="url(#clip0_26_448)">
<path d="M17.0254 0H150.157C154.671 0.00508259 158.999 1.80046 162.19 4.99226C165.382 8.18405 167.178 12.5116 167.183 17.0254V89.8591C167.178 94.373 165.382 98.7005 162.19 101.892C158.999 105.084 154.671 106.879 150.157 106.885H17.0254C12.5115 106.879 8.18401 105.084 4.99223 101.892C1.80044 98.7005 0.00507228 94.373 0 89.8591V17.0254C0.00507134 12.5116 1.80044 8.18405 4.99223 4.99226C8.18401 1.80046 12.5115 0.00508259 17.0254 0Z" fill="#F2F2F2"/>
<path d="M17.0254 4.90125H150.157C153.372 4.90485 156.454 6.18337 158.727 8.45632C161 10.7293 162.278 13.811 162.282 17.0254V89.8591C162.278 93.0735 161 96.1552 158.727 98.4282C156.454 100.701 153.372 101.98 150.157 101.983H17.0254C13.811 101.98 10.7293 100.701 8.45639 98.4281C6.18348 96.1552 4.90497 93.0735 4.90137 89.8591V17.0254C4.90497 13.811 6.18347 10.7293 8.45638 8.45637C10.7293 6.18342 13.811 4.90488 17.0254 4.90125Z" fill="white"/>
<path d="M18.3242 132.961C17.9224 132.96 17.5249 132.88 17.1543 132.725C16.6011 132.503 16.128 132.118 15.7968 131.623C15.4656 131.127 15.2917 130.543 15.298 129.947V104.769L48.8651 103.639L20.4314 132.073C20.1564 132.353 19.8286 132.576 19.4669 132.729C19.1051 132.881 18.7167 132.96 18.3242 132.961Z" fill="#F2F2F2"/>
<path d="M133.483 23.0176H33.3749C29.3669 23.0176 26.1177 26.2668 26.1177 30.2749V30.2749C26.1177 34.283 29.3669 37.5321 33.3749 37.5321H133.483C137.491 37.5321 140.741 34.283 140.741 30.2749C140.741 26.2668 137.491 23.0176 133.483 23.0176Z" fill="#F2F2F2"/>
<path d="M133.646 46.185H33.537C29.529 46.185 26.2798 49.4342 26.2798 53.4422V53.4423C26.2798 57.4503 29.529 60.6995 33.537 60.6995H133.646C137.654 60.6995 140.903 57.4503 140.903 53.4422C140.903 49.4342 137.654 46.185 133.646 46.185Z" fill="#F2F2F2"/>
<path d="M133.808 69.3524H33.6991C29.6911 69.3524 26.4419 72.6016 26.4419 76.6097V76.6097C26.4419 80.6177 29.6911 83.8669 33.6991 83.8669H133.808C137.816 83.8669 141.065 80.6177 141.065 76.6097C141.065 72.6016 137.816 69.3524 133.808 69.3524Z" fill="#F2F2F2"/>
<path d="M227.251 37.1464H94.1189C89.605 37.1514 85.2775 38.9468 82.0857 42.1386C78.8939 45.3304 77.0986 49.6579 77.0935 54.1718V127.005C77.0986 131.519 78.8939 135.847 82.0857 139.039C85.2775 142.23 89.605 144.026 94.1189 144.031H227.251C231.765 144.026 236.092 142.23 239.284 139.039C242.476 135.847 244.271 131.519 244.276 127.005V54.1718C244.271 49.6579 242.476 45.3304 239.284 42.1386C236.092 38.9468 231.765 37.1514 227.251 37.1464Z" fill="#E6E6E6"/>
<path d="M227.251 42.0476H94.1189C90.9044 42.0512 87.8227 43.3297 85.5497 45.6027C83.2768 47.8756 81.9982 50.9574 81.9946 54.1718V127.005C81.9982 130.22 83.2768 133.302 85.5497 135.575C87.8227 137.847 90.9044 139.126 94.1189 139.13H227.251C230.465 139.126 233.547 137.847 235.82 135.574C238.093 133.302 239.371 130.22 239.375 127.005V54.1718C239.371 50.9574 238.093 47.8757 235.82 45.6027C233.547 43.3298 230.465 42.0512 227.251 42.0476Z" fill="white"/>
<path d="M217.123 169.219L188.689 140.786L222.256 141.915V167.093C222.263 167.689 222.089 168.273 221.757 168.769C221.426 169.265 220.953 169.649 220.4 169.871C220.029 170.026 219.632 170.107 219.23 170.108C218.838 170.107 218.449 170.027 218.087 169.875C217.726 169.722 217.398 169.5 217.123 169.219Z" fill="#E6E6E6"/>
<path d="M131.322 99.7867C136.402 99.7867 140.52 95.6686 140.52 90.5886C140.52 85.5086 136.402 81.3904 131.322 81.3904C126.242 81.3904 122.124 85.5086 122.124 90.5886C122.124 95.6686 126.242 99.7867 131.322 99.7867Z" fill="#0165FF"/>
<path d="M160.685 99.7867C165.765 99.7867 169.883 95.6686 169.883 90.5886C169.883 85.5086 165.765 81.3904 160.685 81.3904C155.605 81.3904 151.487 85.5086 151.487 90.5886C151.487 95.6686 155.605 99.7867 160.685 99.7867Z" fill="#0165FF"/>
<path d="M190.048 99.7867C195.128 99.7867 199.246 95.6686 199.246 90.5886C199.246 85.5086 195.128 81.3904 190.048 81.3904C184.968 81.3904 180.85 85.5086 180.85 90.5886C180.85 95.6686 184.968 99.7867 190.048 99.7867Z" fill="#0165FF"/>
<path d="M272.014 248.541L267.395 248.54L265.198 230.724L272.015 230.725L272.014 248.541Z" fill="#FFB8B8"/>
<path d="M273.192 253.018L258.299 253.017V252.829C258.299 251.292 258.91 249.817 259.997 248.73C261.084 247.643 262.558 247.032 264.096 247.032H264.096L273.193 247.033L273.192 253.018Z" fill="#2F2E41"/>
<path d="M265.52 235.145L261.222 236.837L252.653 221.063L258.997 218.567L265.52 235.145Z" fill="#FFB8B8"/>
<path d="M268.256 238.88L254.396 244.334L254.327 244.159C253.764 242.728 253.793 241.132 254.406 239.722C255.02 238.313 256.168 237.205 257.599 236.641L257.599 236.641L266.064 233.311L268.256 238.88Z" fill="#2F2E41"/>
<path d="M264.112 242.752L265.583 188.7L259.038 211.872L263.767 227.949L255.922 234.618L247.925 209.103L247.911 209.058L255.859 167.046L279.367 165.908L279.535 165.9L279.562 166.066C279.584 166.206 281.806 180.155 279.938 190.243C278.077 200.292 273.58 242.922 273.535 243.352L273.516 243.535L264.112 242.752Z" fill="#2F2E41"/>
<path d="M257.077 170.415L256.944 170.362L261.307 130.342L261.434 130.31C265.867 129.201 271.841 129.298 275.007 129.454C275.487 129.479 275.944 129.669 276.301 129.991C276.657 130.313 276.892 130.748 276.966 131.223L282.211 165.766L282.167 165.828C278.541 171.007 273.001 172.416 268.047 172.416C264.304 172.368 260.596 171.692 257.077 170.415Z" fill="#0165FF"/>
<path d="M277.852 182.108L277.694 182.093L274.908 129.351L283.374 131.263C284.299 131.475 285.112 132.023 285.656 132.801C286.199 133.579 286.433 134.532 286.313 135.473L285.215 144.24L285.592 159.663C285.854 160.611 290.141 176.305 287.759 180.394C287.639 180.626 287.472 180.83 287.269 180.995C287.066 181.159 286.831 181.28 286.58 181.35C284.293 181.899 281.949 182.173 279.597 182.167C278.528 182.166 277.868 182.109 277.852 182.108Z" fill="#3F3D56"/>
<path d="M252.918 182.466C252.507 182.281 252.142 182.006 251.852 181.661C251.561 181.316 251.352 180.91 251.241 180.472C250.689 178.251 252.552 175.458 252.82 175.07L255.073 153.669L251.722 133.899C251.665 133.561 251.677 133.215 251.758 132.881C251.84 132.548 251.988 132.235 252.194 131.961C252.401 131.687 252.661 131.458 252.959 131.289C253.257 131.119 253.587 131.012 253.927 130.974L263.472 129.909L262.987 150.247C267.084 164.094 258.163 184.058 258.072 184.258L258.022 184.369H257.9C257.852 184.369 256.682 184.348 252.918 182.466Z" fill="#3F3D56"/>
<path d="M272.531 124.714C277.015 122.262 278.663 116.64 276.212 112.155C273.761 107.671 268.138 106.023 263.654 108.474C259.169 110.926 257.521 116.548 259.973 121.032C262.424 125.517 268.047 127.165 272.531 124.714Z" fill="#FFB8B8"/>
<path d="M278.688 172.563C278.605 172.053 278.635 171.531 278.775 171.034C278.915 170.537 279.163 170.077 279.5 169.686C279.837 169.295 280.256 168.982 280.728 168.771C281.199 168.559 281.711 168.453 282.227 168.461L285.43 161.05L290.408 161.899L285.738 172.3C285.668 173.167 285.282 173.978 284.654 174.579C284.026 175.18 283.199 175.53 282.33 175.563C281.461 175.595 280.61 175.308 279.939 174.755C279.268 174.202 278.823 173.422 278.688 172.563V172.563Z" fill="#FFB8B8"/>
<path d="M283.198 165.772L285.843 149.902L281.325 142.372L282.476 131.63L282.732 131.566C283.589 131.354 284.493 131.443 285.291 131.819C286.09 132.194 286.735 132.833 287.119 133.628L294.499 149.03L294.528 149.092L289.168 170.15L283.198 165.772Z" fill="#3F3D56"/>
<path d="M274.157 124.056C274.369 124.117 275.257 123.114 276.229 121.912C277.251 120.658 277.988 119.198 278.39 117.632C278.792 116.066 278.849 114.431 278.557 112.841C278.544 112.769 278.53 112.701 278.517 112.638C278.195 111.105 276.733 109.693 275.201 110.018C275.316 108.66 274.402 107.381 273.243 106.665C272.084 105.948 270.71 105.682 269.371 105.43C267.844 105.141 266.297 104.852 264.745 104.95C263.249 105.042 261.8 105.505 260.527 106.297C258.982 107.314 257.791 108.787 257.121 110.511C256.45 112.235 256.334 114.126 256.787 115.919C258.737 113.705 261.047 111.297 264.387 112.256C265.143 112.482 265.848 112.851 266.464 113.343C268.494 114.937 269.515 117.285 270.502 119.579C270.995 118.323 272.824 117.851 273.863 118.711C274.53 119.263 274.804 120.18 274.779 121.045C274.71 121.91 274.51 122.758 274.187 123.563" fill="#2F2E41"/>
<path d="M272.964 158.627H272.529V156.914C272.528 156.406 272.326 155.919 271.967 155.56C271.608 155.201 271.121 154.999 270.613 154.998H265.156C264.648 154.999 264.161 155.201 263.802 155.56C263.443 155.919 263.241 156.406 263.241 156.914V168.757C263.241 169.264 263.443 169.751 263.802 170.11C264.161 170.469 264.648 170.671 265.156 170.672H270.613C271.121 170.671 271.608 170.469 271.967 170.11C272.326 169.751 272.528 169.264 272.529 168.757V160.658H272.964V158.627Z" fill="#2F2E41"/>
<path d="M268.03 161.819C268.671 161.819 269.191 161.299 269.191 160.658C269.191 160.017 268.671 159.497 268.03 159.497C267.389 159.497 266.869 160.017 266.869 160.658C266.869 161.299 267.389 161.819 268.03 161.819Z" fill="white"/>
<path d="M268.977 165.284C268.756 164.817 268.436 164.405 268.038 164.075C267.641 163.745 267.176 163.507 266.676 163.377C266.176 163.246 265.654 163.227 265.146 163.32C264.638 163.413 264.157 163.617 263.736 163.916L256.892 159.634L253.275 163.158L263.025 169.07C263.574 169.744 264.352 170.192 265.211 170.331C266.069 170.469 266.949 170.288 267.682 169.821C268.416 169.355 268.953 168.635 269.192 167.799C269.431 166.963 269.354 166.068 268.977 165.284Z" fill="#FFB8B8"/>
<path d="M244.5 157.126L250.762 133.469C250.927 132.858 251.315 132.33 251.849 131.991C252.383 131.651 253.025 131.524 253.649 131.635L255.802 132.026L258.096 144.644L253.43 155.28L261.87 160.347L260.683 169.841L244.5 157.126Z" fill="#3F3D56"/>
</g>
<defs>
<clipPath id="clip0_26_448">
<rect width="300" height="257.302" fill="white"/>
</clipPath>
</defs>
</svg>
